<svg viewBox="0 0 200 200" xmlns="http://www.w3.org/2000/svg" style="max-width:165;width:100%" ><rect width="100%" height="100%" fill="#FDFAF5"/><path d="M100,100 L191.2,88.0 A92,92 0 0 1 191.2,112.0 Z" fill="#C9A96E" opacity="0.18"/><g fill="none" stroke="#9B7A45" stroke-width="0.9"><circle cx="100" cy="100" r="20.2"/><circle cx="100" cy="100" r="38.6"/><circle cx="100" cy="100" r="55.2"/><circle cx="100" cy="100" r="71.8"/><circle cx="100" cy="100" r="92.0"/></g><g stroke="#9B7A45" stroke-width="0.7" stroke-dasharray="2 2"><line x1="100" y1="100" x2="192.0" y2="100.0"/><line x1="100" y1="100" x2="188.9" y2="123.8"/><line x1="100" y1="100" x2="179.7" y2="146.0"/><line x1="100" y1="100" x2="165.1" y2="165.1"/><line x1="100" y1="100" x2="146.0" y2="179.7"/><line x1="100" y1="100" x2="123.8" y2="188.9"/><line x1="100" y1="100" x2="100.0" y2="192.0"/><line x1="100" y1="100" x2="76.2" y2="188.9"/><line x1="100" y1="100" x2="54.0" y2="179.7"/><line x1="100" y1="100" x2="34.9" y2="165.1"/><line x1="100" y1="100" x2="20.3" y2="146.0"/><line x1="100" y1="100" x2="11.1" y2="123.8"/><line x1="100" y1="100" x2="8.0" y2="100.0"/><line x1="100" y1="100" x2="11.1" y2="76.2"/><line x1="100" y1="100" x2="20.3" y2="54.0"/><line x1="100" y1="100" x2="34.9" y2="34.9"/><line x1="100" y1="100" x2="54.0" y2="20.3"/><line x1="100" y1="100" x2="76.2" y2="11.1"/><line x1="100" y1="100" x2="100.0" y2="8.0"/><line x1="100" y1="100" x2="123.8" y2="11.1"/><line x1="100" y1="100" x2="146.0" y2="20.3"/><line x1="100" y1="100" x2="165.1" y2="34.9"/><line x1="100" y1="100" x2="179.7" y2="54.0"/><line x1="100" y1="100" x2="188.9" y2="76.2"/></g><g fill="none" stroke="#876538" stroke-width="1.2"><circle cx="138.6" cy="100.0" r="5"/><circle cx="171.8" cy="100.0" r="5"/></g><circle cx="100" cy="100" r="4" fill="#876538"/></svg>